<?xml version="1.0" encoding="UTF-8"?>
<svg id="Layer_2" data-name="Layer 2" xmlns="http://www.w3.org/2000/svg" viewBox="0 0 267.02 228.77">
  <defs>
    <style>
      .cls-1 {
        fill: #befea8;
      }

      .cls-1, .cls-2, .cls-3, .cls-4 {
        stroke: #14684e;
        stroke-miterlimit: 10;
        stroke-width: 4px;
      }

      .cls-2 {
        fill: #57d6a1;
      }

      .cls-5 {
        stroke-width: 0px;
      }

      .cls-5, .cls-6 {
        fill: #14684e;
      }

      .cls-3 {
        fill: #38af79;
      }

      .cls-6 {
        font-family: ArialMT, Arial;
        font-size: 55.92px;
        letter-spacing: -.05em;
      }

      .cls-4 {
        fill: none;
      }
    </style>
  </defs>
  <g id="Objects">
    <g>
      <text class="cls-6" transform="translate(0 210.62)"><tspan x="0" y="0">money care</tspan></text>
      <g>
        <circle class="cls-5" cx="133.24" cy="80.84" r="78.84"/>
        <path class="cls-3" d="M97.78,151.27c27.61-49.41,10.23-83.05,10.23-83.05-20.72,1.48-36.79,15.77-36.79,15.77,26.28,24.18,16.43,61.18,16.43,61.18,0,0,7.26,5.05,10.13,6.1Z"/>
        <path class="cls-2" d="M152.08,48.52c-24.26-7.09-48.27,2.89-48.27,2.89,19.97,66.23-6.02,99.87-6.02,99.87,0,0,15.49,8.41,38.61,8.41,0,0,34.53-81.46,15.69-111.16Z"/>
        <path class="cls-1" d="M206.66,52.06c-21.91-27.98-58.7-24.83-58.7-24.83,19.97,97.76-41.02,127.95-41.02,127.95,0,0,36.82,13.96,68.57-7.77,0,0,53.4-33.98,31.16-95.35Z"/>
        <circle class="cls-4" cx="133.24" cy="80.84" r="78.84"/>
        <g>
          <path class="cls-4" d="M117.47,157.58c5.94-3.96,11.56-9.71,16.29-15.56"/>
          <path class="cls-4" d="M211.03,68.23c-11.95-17.93-28.38-26.11-41.45-30.14-1.14,5.52-5.45,9.09-11.06,9.98,3.76,40.37-6.85,67.45-17.39,83.79-2.06,3.19-4.55,6.7-7.36,10.16"/>
        </g>
        <path class="cls-4" d="M178.32,145.53c-2.18.08-4.36-.21-6.45-.9"/>
        <path class="cls-4" d="M171.88,144.62c-.89-.3-1.77-.66-2.62-1.11-10.18-5.29-13.37-19.31-7.13-31.31,6.24-12,19.55-17.45,29.72-12.16,6.55,3.41,10.21,10.43,10.31,18.2"/>
        <path class="cls-4" d="M151.73,55.74c-4.3-1-13.46-2.4-18.25-2.4-3.72,0-7.24.31-10.45.77.01.23.03.45.03.68,0,5.07-3.4,9.35-8.04,10.68,8.94,42.02.88,68.17-10.42,88.5"/>
        <path class="cls-4" d="M109.33,75.02c-8.68,1.09-17.36,4.61-21.74,6.91.53.91.84,1.96.84,3.09,0,2.03-.99,3.82-2.5,4.94,11.49,17.31,12.68,37.32,8.09,58.82"/>
      </g>
    </g>
  </g>
</svg>